Coordinates
version=1
nRows=5
nColumns=63
inDegrees=yes

Units are S.I. units (second, meters, Newtons, ...)
If the header above contains a line with 'inDegrees', this indicates whether rotational values are in degrees (yes) or radians (no).

endheader
time	pelvis_tilt	pelvis_list	pelvis_rotation	pelvis_tx	pelvis_ty	pelvis_tz	hip_flexion_r	hip_adduction_r	hip_rotation_r	knee_angle_r	knee_angle_r_beta	ankle_angle_r	subtalar_angle_r	mtp_angle_r	hip_flexion_l	hip_adduction_l	hip_rotation_l	knee_angle_l	knee_angle_l_beta	ankle_angle_l	subtalar_angle_l	mtp_angle_l	L5_S1_Flex_Ext	L5_S1_Lat_Bending	L5_S1_axial_rotation	L4_L5_Flex_Ext	L4_L5_Lat_Bending	L4_L5_axial_rotation	L3_L4_Flex_Ext	L3_L4_Lat_Bending	L3_L4_axial_rotation	L2_L3_Flex_Ext	L2_L3_Lat_Bending	L2_L3_axial_rotation	L1_L2_Flex_Ext	L1_L2_Lat_Bending	L1_L2_axial_rotation	L1_T12_Flex_Ext	L1_T12_Lat_Bending	L1_T12_axial_rotation	Abs_r3	Abs_r2	Abs_r1	Abs_t1	Abs_t2	neck_flexion	neck_bending	neck_rotation	arm_flex_r	arm_add_r	arm_rot_r	elbow_flex_r	pro_sup_r	wrist_flex_r	wrist_dev_r	arm_flex_l	arm_add_l	arm_rot_l	elbow_flex_l	pro_sup_l	wrist_flex_l	wrist_dev_l
      1.18644068	      0.30391990	     -9.83532130	     91.56407027	      0.16862763	      0.96394992	      0.49708747	      4.77299872	      1.85873139	    -17.51993379	      6.38890476	      0.11150742	     32.31573655	     16.24606006	      0.00000000	      8.81446700	     -2.88416318	    -20.50022296	     15.78329789	      0.27547052	     33.67342580	     14.44198734	      0.00000000	     -1.37849018	      0.69386206	     -0.76870149	     -2.55999412	      0.92283653	     -0.81674534	     -2.26472152	      1.68705620	     -0.81674534	     -1.57547643	      1.68705620	     -0.67261381	     -1.28006598	      1.41492350	     -0.62456996	     -0.78766929	      1.07479232	     -0.57652612	     -9.84641753	      7.84910635	     -4.27528709	      0.00000000	      0.00000000	    -27.72709079	     11.73548764	    -10.59771310	     18.16524938	    -10.53945383	     43.60442588	    149.75924730	     89.16625738	     -8.72431673	      5.49100710	    -11.43459275	    -17.60231201	     -6.94633342	    125.34825878	     85.72234327	    -12.97132784	      0.71836435
      1.20338983	      0.58798596	     -9.56523709	     92.30508305	      0.16684718	      0.96413610	      0.49748746	      4.31101499	      2.07315888	    -18.16763398	      6.06060667	      0.10577754	     32.29440452	     16.26851207	      0.00000000	      8.88310801	     -3.11846134	    -19.76502734	     16.25633782	      0.28372662	     34.06248505	     14.37380581	      0.00000000	     -1.43359424	      0.75541584	     -1.11018882	     -2.66232787	      1.00470306	     -1.17957563	     -2.35525198	      1.83671807	     -1.17957563	     -1.63845486	      1.83671807	     -0.97141522	     -1.33123561	      1.54044398	     -0.90202842	     -0.81915575	      1.17013913	     -0.83264162	    -10.24002032	      8.54541504	     -6.17453719	      0.00000000	      0.00000000	    -27.69027637	     10.40529055	     -8.71568631	     19.23347303	    -10.47561814	     44.81114220	    149.71181143	     89.25722572	    -13.79940262	      5.67254450	    -12.90299405	    -17.19661354	     -8.14862362	    126.47696524	     85.65914606	    -13.48978612	      2.54702161
      1.22033898	      0.56145230	     -9.28635466	     92.35397170	      0.16679194	      0.96449500	      0.49749251	      3.95373538	      2.03879396	    -18.18109233	      5.89817153	      0.10294251	     32.54327088	     16.42078545	      0.00000000	      8.64849382	     -3.13131231	    -19.83672057	     16.36422008	      0.28560952	     34.40793534	     14.57494217	      0.00000000	     -1.48961120	      0.76523744	     -1.23748290	     -2.76635695	      1.01776580	     -1.31482558	     -2.44728223	      1.86059831	     -1.31482558	     -1.70247664	      1.86059831	     -1.08279753	     -1.38325296	      1.56047219	     -1.00545485	     -0.85116384	      1.18535279	     -0.92811217	    -10.64014381	      8.65651897	     -6.88250862	      0.00000000	      0.00000000	    -27.69499031	      9.76215553	     -7.37587000	     19.09693567	    -10.23663185	     44.70487280	    149.66338458	     89.31085003	    -15.22477381	      5.58169146	    -13.86329195	    -17.18438331	     -8.72465811	    127.20836994	     85.49788904	    -13.89370106	      3.90797207
      1.23728814	      0.43646042	     -9.03854482	     92.15611033	      0.16735136	      0.96488629	      0.49728757	      3.62959571	      1.93778838	    -17.92846762	      5.69351320	      0.09937055	     32.84679349	     16.65428150	      0.00000000	      8.34497600	     -3.06736497	    -20.12456727	     16.35324597	      0.28541799	     34.74768911	     14.77724353	      0.00000000	     -1.54089673	      0.75631389	     -1.29010146	     -2.86159932	      1.00589747	     -1.37073281	     -2.53153924	      1.83890158	     -1.37073281	     -1.76109088	      1.83890158	     -1.12883878	     -1.43087671	      1.54227528	     -1.04820744	     -0.88046839	      1.17153021	     -0.96757610	    -11.00647127	      8.55557394	     -7.17515731	      0.00000000	      0.00000000	    -27.73854375	      9.44758795	     -6.28186326	     18.73326009	    -10.17969829	     44.51437691	    149.62112566	     89.33725848	    -15.75669128	      5.18833263	    -14.71625814	    -17.28145160	     -9.14935067	    127.79509573	     85.33450104	    -14.13247249	      4.93786104
      1.25423729	      0.16497432	     -8.81156302	     91.70542151	      0.16873289	      0.96535685	      0.49684541	      3.37904362	      1.72201305	    -17.40860529	      5.57770942	      0.09734939	     33.16225131	     16.78118978	      0.00000000	      7.94195664	     -2.94158714	    -21.04901767	     16.22983000	      0.28326397	     34.97194210	     15.47538485	      0.00000000	     -1.58726070	      0.72093379	     -1.24779963	     -2.94770185	      0.95884194	     -1.32578710	     -2.60771060	      1.75287841	     -1.32578710	     -1.81408025	      1.75287841	     -1.09182467	     -1.47393029	      1.47012818	     -1.01383720	     -0.90696076	      1.11672644	     -0.93584972	    -11.33764445	      8.15534718	     -6.93988718	      0.00000000	      0.00000000	    -27.79735519	      9.36548583	     -5.71729396	     18.24587604	    -10.22368067	     44.55673181	    149.62373542	     89.35191724	    -16.41666011	      4.56096185	    -15.40988432	    -17.50876871	     -9.46617484	    128.37474477	     85.31024167	    -13.97579818	      6.30932031
